HIERARCHY
ROOT Hips
{
	OFFSET 0.00000 0.00000 0.00000
	CHANNELS 6 Xposition Yposition Zposition Zrotation Yrotation Xrotation 
	JOINT LHipJoint
	{
		OFFSET 0 0 0
		CHANNELS 3 Zrotation Yrotation Xrotation
		JOINT LeftUpLeg
		{
			OFFSET 1.29432 -1.88279 0.59910
			CHANNELS 3 Zrotation Yrotation Xrotation
			JOINT LeftLeg
			{
				OFFSET 2.63039 -7.22694 0.00000
				CHANNELS 3 Zrotation Yrotation Xrotation
				JOINT LeftFoot
				{
					OFFSET 2.70674 -7.43672 0.00000
					CHANNELS 3 Zrotation Yrotation Xrotation
					JOINT LeftToeBase
					{
						OFFSET 0.15066 -0.41394 2.09027
						CHANNELS 3 Zrotation Yrotation Xrotation
						End Site
						{
							OFFSET 0.00000 -0.00000 1.07518
						}
					}
				}
			}
		}
	}
	JOINT RHipJoint
	{
		OFFSET 0 0 0
		CHANNELS 3 Zrotation Yrotation Xrotation
		JOINT RightUpLeg
		{
			OFFSET -1.37068 -1.88279 0.59910
			CHANNELS 3 Zrotation Yrotation Xrotation
			JOINT RightLeg
			{
				OFFSET -2.57023 -7.06166 0.00000
				CHANNELS 3 Zrotation Yrotation Xrotation
				JOINT RightFoot
				{
					OFFSET -2.76461 -7.59570 0.00000
					CHANNELS 3 Zrotation Yrotation Xrotation
					JOINT RightToeBase
					{
						OFFSET -0.24175 -0.64785 2.19719
						CHANNELS 3 Zrotation Yrotation Xrotation
						End Site
						{
							OFFSET -0.00000 -0.00000 1.14803
						}
					}
				}
			}
		}
	}
	JOINT LowerBack
	{
		OFFSET 0 0 0
		CHANNELS 3 Zrotation Yrotation Xrotation
		JOINT Spine
		{
			OFFSET -0.03138 2.03983 -0.23106
			CHANNELS 3 Zrotation Yrotation Xrotation
			JOINT Spine1
			{
				OFFSET -0.00325 2.06238 -0.06878
				CHANNELS 3 Zrotation Yrotation Xrotation
				JOINT Neck
				{
					OFFSET 0 0 0
					CHANNELS 3 Zrotation Yrotation Xrotation
					JOINT Neck1
					{
						OFFSET -0.00002 1.75318 0.18090
						CHANNELS 3 Zrotation Yrotation Xrotation
						JOINT Head
						{
							OFFSET 0.08806 1.75856 -0.25387
							CHANNELS 3 Zrotation Yrotation Xrotation
							End Site
							{
								OFFSET 0.02554 1.78597 -0.10684
							}
						}
					}
				}
				JOINT LeftShoulder
				{
					OFFSET 0 0 0
					CHANNELS 3 Zrotation Yrotation Xrotation
					JOINT LeftArm
					{
						OFFSET 3.09657 1.33597 -0.04414
						CHANNELS 3 Zrotation Yrotation Xrotation
						JOINT LeftForeArm
						{
							OFFSET 5.34298 -0.00000 -0.00000
							CHANNELS 3 Zrotation Yrotation Xrotation
							JOINT LeftHand
							{
								OFFSET 3.67262 -0.00000 -0.00000
								CHANNELS 3 Zrotation Yrotation Xrotation
								JOINT LeftFingerBase
								{
									OFFSET 0 0 0
									CHANNELS 3 Zrotation Yrotation Xrotation
									JOINT LeftHandIndex1
									{
										OFFSET 0.59930 -0.00000 -0.00000
										CHANNELS 3 Zrotation Yrotation Xrotation
										End Site
										{
											OFFSET 0.48317 -0.00000 -0.00000
										}
									}
								}
								JOINT LThumb
								{
									OFFSET 0 0 0
									CHANNELS 3 Zrotation Yrotation Xrotation
									End Site
									{
										OFFSET 0.49055 -0.00000 0.49055
									}
								}
							}
						}
					}
				}
				JOINT RightShoulder
				{
					OFFSET 0 0 0
					CHANNELS 3 Zrotation Yrotation Xrotation
					JOINT RightArm
					{
						OFFSET -3.16460 1.32273 -0.23382
						CHANNELS 3 Zrotation Yrotation Xrotation
						JOINT RightForeArm
						{
							OFFSET -5.54967 -0.01834 0.03348
							CHANNELS 3 Zrotation Yrotation Xrotation
							JOINT RightHand
							{
								OFFSET -3.69401 -0.00000 0.00000
								CHANNELS 3 Zrotation Yrotation Xrotation
								JOINT RightFingerBase
								{
									OFFSET 0 0 0
									CHANNELS 3 Zrotation Yrotation Xrotation
									JOINT RightHandIndex1
									{
										OFFSET -0.63811 -0.00000 0.00000
										CHANNELS 3 Zrotation Yrotation Xrotation
										End Site
										{
											OFFSET -0.51446 -0.00000 0.00000
										}
									}
								}
								JOINT RThumb
								{
									OFFSET 0 0 0
									CHANNELS 3 Zrotation Yrotation Xrotation
									End Site
									{
										OFFSET -0.52232 -0.00000 0.52232
									}
								}
							}
						}
					}
				}
			}
		}
	}
}
MOTION
Frames: 10
Frame Time: .0083333
23.3594 17.2189 -2.5666 171.6250 -68.8635 -160.9880 0.0000 0.0000 0.0000 -23.0946 -1.1755 -39.5542 8.2671 16.3122 53.5192 1.1375 -13.2145 -19.8858 1.0864 6.6244 18.6072 0.0000 0.0000 0.0000 12.9223 3.1035 -50.0001 -12.8443 -18.7252 68.6411 0.3697 14.0345 -4.5604 -1.8519 8.5504 -24.3988 -0.8593 0.1715 22.8939 -1.1112 -0.9752 9.5621 -0.4494 -0.8757 -2.3193 9.8706 14.9172 -4.8049 -21.8303 19.4596 -5.6513 -6.9915 9.5668 2.3822 0.0000 -0.0000 0.0000 -74.5603 -29.2384 5.3820 119.3338 -56.4849 -85.1040 -0.0000 -0.0000 27.1821 26.1664 43.2862 18.6176 -7.1250 0.0000 -0.0000 -21.8117 75.4773 -15.8078 0.0000 -0.0000 0.0000 80.4829 -2.3610 23.2398 -60.6935 56.4919 -34.9187 0.0000 0.0000 5.3920 -22.6978 23.3788 -9.4235 7.1250 -0.0000 -0.0000 3.9866 -4.9244 3.6387
23.3635 17.1749 -2.5972 170.2500 -68.4366 -159.8470 0.0000 0.0000 0.0000 -23.6388 -1.1901 -39.6127 8.3810 16.3925 53.9237 1.2320 -12.6079 -20.4458 0.9667 6.2598 17.5402 0.0000 0.0000 0.0000 11.3704 2.9885 -50.6670 -13.1811 -18.8466 69.6871 0.6331 15.8301 -2.2139 -2.2951 9.4554 -27.2304 -1.6218 0.3393 22.9257 -1.2154 -0.9290 9.5628 -0.1379 -0.8721 -2.3268 9.5456 14.8818 -4.6280 -21.5103 19.3961 -5.8203 -6.8837 9.5605 2.2222 -0.0000 -0.0000 0.0000 -73.6684 -28.4097 5.1653 119.7296 -56.3816 -85.4338 -0.0000 -0.0000 26.3021 23.3048 40.6413 15.6724 -7.1250 0.0000 -0.0000 -20.5913 72.1234 -13.4408 -0.0000 -0.0000 0.0000 80.8690 -2.5877 23.0201 -61.4429 56.6823 -35.5443 0.0000 0.0000 5.6477 -22.5748 23.3710 -9.3649 7.1250 -0.0000 -0.0000 4.0621 -4.9542 3.7056
23.3656 17.1464 -2.6286 170.3710 -68.0536 -160.1120 0.0000 0.0000 0.0000 -23.5814 -1.0162 -39.8290 8.5616 16.5172 54.5611 1.3218 -12.8636 -21.1487 0.9858 6.3198 17.7151 0.0000 0.0000 0.0000 10.3650 3.3210 -51.0429 -13.4182 -18.9280 70.4194 0.9138 17.8129 -0.2013 -2.6560 10.1162 -29.3538 -1.8768 0.5268 22.9971 -1.2195 -0.7495 9.5608 -0.0398 -0.7924 -2.3630 9.5238 14.8702 -4.4940 -21.3535 19.3691 -5.9320 -6.8539 9.5613 2.1422 0.0000 -0.0000 0.0000 -73.1744 -28.6945 5.2951 119.7752 -56.3695 -85.4718 -0.0000 -0.0000 25.2437 23.2024 41.2542 15.7831 -7.1250 0.0000 -0.0000 -21.7845 72.6304 -14.4780 0.0000 -0.0000 0.0000 80.9620 -2.8052 22.8687 -61.8532 56.7839 -35.8873 0.0000 0.0000 6.0035 -22.7997 23.4154 -9.4835 7.1250 -0.0000 -0.0000 3.9274 -4.8679 3.5886
23.3626 17.1092 -2.6510 171.8840 -67.7071 -161.6120 0.0000 0.0000 0.0000 -23.0025 -0.7188 -40.2728 8.7814 16.6650 55.3311 1.2507 -15.3787 -21.2719 1.5156 7.7743 22.0308 0.0000 0.0000 0.0000 9.9326 4.0290 -51.1634 -13.5520 -18.9725 70.8314 1.1464 19.5972 0.5321 -2.7935 10.3530 -30.1276 -1.6172 0.5519 23.0255 -1.1135 -0.6627 9.5514 -0.0944 -0.7471 -2.3892 9.3916 14.9542 -4.3516 -21.3317 19.4685 -6.1058 -6.8354 9.6285 2.0669 0.0000 0.0000 0.0000 -72.7159 -28.8411 4.6814 120.0648 -56.2926 -85.7128 -0.0000 -0.0000 24.8501 25.2348 41.9873 17.4995 -7.1250 0.0000 -0.0000 -20.4081 74.0006 -14.1383 0.0000 0.0000 0.0000 80.8587 -2.8650 22.9426 -62.2524 56.8809 -36.2215 0.0000 0.0000 6.5122 -22.8590 23.3390 -9.4817 7.1250 -0.0000 -0.0000 3.8825 -4.9377 3.5422
23.3655 17.0687 -2.6731 172.5690 -67.3517 -162.3140 0.0000 0.0000 0.0000 -22.7413 -0.4476 -40.6932 8.9788 16.7941 56.0168 1.5455 -12.1677 -22.5887 1.1291 6.7491 18.9741 0.0000 0.0000 0.0000 9.0693 5.0521 -51.1296 -13.6244 -18.9961 71.0539 1.2302 20.0602 1.2090 -2.2135 9.2972 -26.7296 -1.6552 0.5406 23.0215 -1.1208 -0.6920 9.5633 -0.0736 -0.7654 -2.3738 9.4561 15.0795 -4.3835 -21.3352 19.6399 -6.1026 -6.8212 9.7104 2.1048 -0.0000 -0.0000 0.0000 -72.2129 -28.9264 4.1144 120.1946 -56.2579 -85.8207 -0.0000 -0.0000 25.3594 16.9328 37.8131 10.5728 -7.1250 0.0000 -0.0000 -24.2277 67.5547 -13.4551 -0.0000 -0.0000 0.0000 80.6880 -2.8785 23.2459 -62.8768 57.0290 -36.7449 0.0000 0.0000 6.4126 -22.7258 23.0319 -9.3062 7.1250 -0.0000 -0.0000 3.9329 -5.2837 3.5626
23.3651 17.0580 -2.7054 173.0990 -67.2198 -162.8870 0.0000 0.0000 0.0000 -22.4003 -0.3345 -40.8133 9.1265 16.8884 56.5265 1.6505 -11.4819 -23.2108 1.3320 7.3084 20.6324 0.0000 0.0000 0.0000 8.1488 5.9367 -51.0459 -13.6452 -19.0029 71.1178 1.1235 19.2722 0.9505 -1.6287 8.0457 -22.8531 -1.6631 0.5508 22.9706 -1.1277 -0.6829 9.5834 -0.0793 -0.7629 -2.3270 9.8445 15.1334 -4.3809 -21.4080 19.7127 -6.0798 -6.8837 9.7392 2.1701 -0.0000 0.0000 0.0000 -71.8572 -29.0203 4.0345 120.0161 -56.3057 -85.6723 -0.0000 -0.0000 26.1656 14.7895 36.0184 8.8249 -7.1250 0.0000 -0.0000 -24.4563 65.3419 -12.3575 -0.0000 0.0000 0.0000 80.7159 -3.0617 23.2605 -63.8415 57.2496 -37.5552 0.0000 0.0000 5.6411 -21.6667 22.9384 -8.8015 7.1250 -0.0000 -0.0000 4.5833 -5.5625 4.1309
23.3574 17.0540 -2.7447 174.3130 -67.1515 -164.2180 0.0000 0.0000 0.0000 -21.7038 -0.2644 -40.6595 9.2460 16.9635 56.9372 1.6852 -11.9458 -23.5007 1.7014 8.2143 23.3670 0.0000 0.0000 0.0000 7.6915 6.3792 -50.8570 -13.6190 -18.9944 71.0374 0.9006 18.1659 -1.3572 -1.8351 8.5138 -24.2857 -1.5603 0.5527 22.9952 -0.8980 -0.6509 9.5905 0.1007 -0.7508 -2.3298 9.5462 15.1345 -3.9918 -21.2164 19.6926 -6.3873 -6.8353 9.7709 1.9601 0.0000 -0.0000 0.0000 -73.9069 -29.3095 3.4312 121.1539 -55.9945 -86.6172 -0.0000 -0.0000 27.7075 14.1638 34.1979 8.0732 -7.1250 0.0000 -0.0000 -23.1934 63.5413 -10.7188 0.0000 -0.0000 0.0000 80.6115 -3.2870 23.1833 -64.6371 57.4241 -38.2251 0.0000 0.0000 5.5564 -20.7863 23.3012 -8.5393 7.1250 -0.0000 -0.0000 5.1657 -5.3306 4.6829
23.3506 17.0271 -2.7809 174.8350 -67.0157 -165.0580 0.0000 0.0000 0.0000 -21.3209 -0.2620 -40.3068 9.3524 17.0292 57.3009 1.7468 -11.8275 -23.8942 1.4394 7.5849 21.4603 0.0000 0.0000 0.0000 7.0387 6.5396 -50.3958 -13.5516 -18.9724 70.8303 0.5819 16.7273 -4.6155 -2.3995 9.6529 -27.8599 -1.7213 0.5659 23.1460 -0.6872 -0.6766 9.6640 0.4252 -0.7793 -2.3194 9.0519 15.1441 -3.7582 -21.0126 19.6960 -6.5591 -6.7377 9.8022 1.7970 -0.0000 0.0000 0.0000 -72.6935 -29.4898 3.1581 120.1232 -56.2770 -85.7614 -0.0000 -0.0000 27.1474 18.0330 37.2821 11.1557 -7.1250 0.0000 -0.0000 -22.2698 67.4129 -12.2515 -0.0000 0.0000 0.0000 80.4110 -3.3953 23.3567 -64.6371 57.4241 -38.2251 0.0000 0.0000 6.4042 -22.2138 23.8476 -9.3754 7.1250 -0.0000 -0.0000 4.3354 -4.5186 3.9921
23.3473 16.9872 -2.8104 174.5310 -66.8832 -165.1030 0.0000 0.0000 0.0000 -21.2775 -0.5356 -39.9397 9.4736 17.1030 57.7141 1.8743 -11.1288 -24.6567 1.0014 6.3679 17.8557 0.0000 0.0000 0.0000 5.9698 6.7953 -49.8771 -13.4445 -18.9368 70.5004 0.2269 14.6326 -7.4459 -2.7056 10.2026 -29.6352 -1.8776 0.6172 23.3446 -0.7584 -0.6715 9.7528 0.4379 -0.7881 -2.3197 9.0825 15.1230 -3.7768 -20.9683 19.6651 -6.5562 -6.7313 9.7849 1.7941 0.0000 0.0000 0.0000 -71.5959 -29.9417 3.3702 119.4943 -56.4432 -85.2378 -0.0000 -0.0000 26.8250 26.9954 43.6431 19.3710 -7.1250 0.0000 -0.0000 -21.4437 76.0999 -15.8125 0.0000 0.0000 0.0000 80.6701 -3.4636 23.2669 -64.6784 57.4329 -38.2598 0.0000 0.0000 6.4721 -23.6839 23.8330 -10.0507 7.1250 -0.0000 -0.0000 3.4270 -4.2681 3.1682
23.3430 16.9776 -2.8454 174.3420 -66.6196 -165.1490 0.0000 0.0000 0.0000 -21.1441 -0.7707 -39.6078 9.5767 17.1648 58.0639 1.9502 -11.0782 -25.1403 1.0542 6.5287 18.3265 0.0000 0.0000 0.0000 4.9357 7.3905 -49.3644 -13.2578 -18.8733 69.9242 -0.0927 12.1339 -9.7328 -2.6307 10.0717 -29.2093 -1.9742 0.6936 23.5327 -0.9853 -0.6195 9.7411 0.2388 -0.7629 -2.4277 9.4565 15.0800 -3.5293 -20.9548 19.5869 -6.7473 -6.8138 9.7618 1.7235 -0.0000 0.0000 0.0000 -71.1746 -30.3813 3.7096 119.1005 -56.5449 -84.9095 -0.0000 -0.0000 26.8182 24.8083 42.9248 17.4742 -7.1250 0.0000 -0.0000 -22.9060 74.6588 -16.2279 -0.0000 0.0000 0.0000 81.2884 -3.5741 22.9810 -64.9139 57.4832 -38.4584 0.0000 0.0000 6.2498 -23.8232 23.7824 -10.0961 7.1250 -0.0000 -0.0000 3.3353 -4.2956 3.0814
